<svg width="92" height="117" viewBox="0 0 92 117" fill="white" xmlns="http://www.w3.org/2000/svg">
<g clip-path="url(#clip0_1_17)">
<path d="M39.67 99H23.81V103H39.67V107H0.0500031V103H11.93V99H0.0500031V95H15.89V103H19.89V95H39.67V99Z"/>
<path d="M39.67 91.08H0.0500031V79.2H11.93V83.2H4.01V87.2H15.89V79.2H19.89V87.12H35.67V83.12H23.81V79.12H39.67V91.08Z"/>
<path d="M39.67 75.24H23.81V71.24H35.67V67.24H19.85V75.16H0.0500031V63.36H11.93V67.36H4.01V71.36H15.89V63.36H39.67V75.24Z"/>
<path d="M39.67 59.4H23.81V55.4H35.67V51.4H19.85V59.4H0.0500031V47.52H11.93V51.52H4.01V55.52H15.89V47.52H39.67V59.4Z"/>
<path d="M39.67 43.56H0.0500031V39.56H35.67V35.56H4.01V31.56H39.67V43.56Z"/>
<path d="M39.67 27.72H0.0500031V15.84H11.93V19.84H4.01V23.84H15.89V15.84H19.89V23.76H35.67V19.76H23.81V15.76H39.67V27.72Z"/>
<path d="M39.67 4H23.81V8H39.67V12H0.0500031V0H15.89V7.92H19.89V0H39.67V4ZM4.01 4V8H11.93V4H4.01Z"/>
<path d="M43.6 15.84H59.44V11.84H43.6V0H63.4V7.92H67.4V0H83.2V11.88H71.32V15.88H79.24V19.88H67.36V11.88H63.36V19.8H43.6V15.84ZM59.44 7.92V4H47.56V8L59.44 7.92ZM79.24 7.92V4H71.32V8L79.24 7.92Z"/>
<path d="M43.6 23.76H59.44V27.76H47.56V31.76H63.4V23.76H83.2V35.64H71.32V31.64H79.24V27.64H67.36V35.56H43.6V23.76Z"/>
<path d="M43.6 39.6H83.2V51.48H43.6V39.6ZM79.24 47.52V43.52H47.56V47.52H79.24ZM87.16 39.6H91.16V43.6H87.16V39.6ZM87.16 47.52H91.16V51.52H87.16V47.52Z"/>
<path d="M43.6 63.36H63.4V59.36H43.6V55.36H83.2V59.36H67.36V63.36H83.2V67.36H43.6V63.36Z"/>
<path d="M43.6 79.2H79.24V75.2H43.6V71.2H83.2V83.16H47.56V87.16H83.2V91.16H43.6V79.2Z"/>
<path d="M43.6 95H83.2V106.88H71.32V102.88H79.24V99H67.36V106.92H63.36V99H47.56V103H59.44V107H43.6V95Z"/>
<path d="M0 111.56H0.74V116.11H0V111.56Z"/>
<path d="M1.67 111.56H2.88L3.36 114.82L3.83 111.56H5.07V116.11H4.32V112.37L3.67 116.11H2.97L2.36 112.38V116.11H1.67V111.56Z"/>
<path d="M6.03999 111.56H7.19999L7.66999 114.82L8.13999 111.56H9.33999V116.11H8.66999V112.37L8.06999 116.11H7.28999L6.66999 112.38V116.11H6.03999V111.56Z"/>
<path d="M10.37 111.56H12.3V112.21H11.11V113.42H12.11V114.08H11.11V115.46H12.3V116.11H10.37V111.56Z"/>
<path d="M13.17 111.56H14.33C14.4881 111.535 14.6499 111.548 14.8018 111.599C14.9537 111.649 15.0913 111.735 15.203 111.85C15.3147 111.964 15.3972 112.104 15.4437 112.257C15.4902 112.411 15.4992 112.573 15.47 112.73C15.4888 112.936 15.443 113.143 15.3391 113.322C15.2352 113.501 15.0783 113.644 14.89 113.73C15.3 113.84 15.39 114.14 15.4 114.56V115.56C15.393 115.726 15.4273 115.891 15.5 116.04V116.04H14.76C14.694 115.896 14.6631 115.738 14.67 115.58V114.65C14.67 114.34 14.56 114.17 14.27 114.17H13.91V116.04H13.17V111.56ZM14.26 113.66C14.3223 113.668 14.3857 113.662 14.4453 113.642C14.5048 113.622 14.559 113.588 14.6034 113.543C14.6479 113.499 14.6815 113.445 14.7017 113.385C14.722 113.326 14.7282 113.262 14.72 113.2V112.69C14.7276 112.628 14.7214 112.565 14.7017 112.506C14.6821 112.447 14.6496 112.393 14.6065 112.348C14.5634 112.303 14.5109 112.268 14.4527 112.246C14.3945 112.224 14.3321 112.215 14.27 112.22H13.91V113.66H14.26Z"/>
<path d="M17.73 111.56H19.67V112.23H18.47V113.4H19.47V114.08H18.47V116.08H17.73V111.56Z"/>
<path d="M20.45 111.56H21.61C21.7681 111.535 21.9299 111.548 22.0818 111.599C22.2337 111.649 22.3713 111.735 22.483 111.85C22.5947 111.964 22.6772 112.104 22.7237 112.257C22.7702 112.411 22.7792 112.573 22.75 112.73C22.7688 112.936 22.723 113.143 22.6191 113.322C22.5152 113.501 22.3583 113.644 22.17 113.73C22.58 113.84 22.67 114.14 22.68 114.56V115.56C22.6791 115.725 22.7131 115.889 22.78 116.04V116.04H22.07C22.004 115.896 21.9731 115.738 21.98 115.58V114.65C21.98 114.34 21.87 114.17 21.58 114.17H21.22V116.04H20.48L20.45 111.56ZM21.54 113.66C21.6023 113.668 21.6657 113.662 21.7253 113.642C21.7848 113.622 21.8389 113.588 21.8834 113.543C21.9279 113.499 21.9615 113.445 21.9817 113.385C22.002 113.326 22.0082 113.262 22 113.2V112.69C22.0076 112.628 22.0014 112.565 21.9817 112.506C21.9621 112.447 21.9296 112.393 21.8865 112.348C21.8434 112.303 21.7909 112.268 21.7327 112.246C21.6745 112.224 21.6121 112.215 21.55 112.22H21.19V113.66H21.54Z"/>
<path d="M23.67 111.56H25.67V112.21H24.45V113.42H25.45V114.08H24.45V115.46H25.67V116.11H23.67V111.56Z"/>
<path d="M26.51 111.56H27.25V116.11H26.51V111.56Z"/>
<path d="M28.78 112.23H28.03V111.56H30.29V112.23H29.52V116.11H28.78V112.23Z"/>
<path d="M31.45 111.53H32.45L33.37 116.11H32.59L32.39 114.98H31.48L31.27 116.11H30.6L31.45 111.53ZM32.24 114.36L31.89 112.51L31.57 114.36H32.24Z"/>
<path d="M33.96 115V112.66C33.9438 112.501 33.9622 112.341 34.0141 112.19C34.0659 112.04 34.1499 111.902 34.2602 111.787C34.3706 111.672 34.5046 111.582 34.6531 111.524C34.8015 111.466 34.9608 111.44 35.12 111.45C35.2748 111.431 35.432 111.448 35.579 111.5C35.7261 111.552 35.8588 111.638 35.9667 111.751C36.0745 111.864 36.1545 112 36.2003 112.149C36.246 112.298 36.2562 112.456 36.23 112.61V113.11H35.51V112.63C35.51 112.4 35.43 112.14 35.11 112.14C34.79 112.14 34.7 112.39 34.7 112.64V115C34.7 115.16 34.7 115.51 35.1 115.51C35.5 115.51 35.47 115.28 35.49 115.08V114.3H35.02V113.73H36.23V116.11H35.86L35.73 115.81C35.6432 115.935 35.526 116.035 35.3894 116.101C35.2529 116.168 35.1016 116.198 34.95 116.19C34.28 116.19 33.96 115.79 33.96 115Z"/>
<path d="M37.08 115V114.8H37.77V114.91C37.77 115.16 37.77 115.51 38.18 115.51C38.59 115.51 38.55 115.27 38.55 114.97C38.5423 114.829 38.5023 114.691 38.4329 114.568C38.3635 114.445 38.2667 114.34 38.15 114.26L37.75 113.95C37.5451 113.813 37.3775 113.626 37.2623 113.408C37.1471 113.19 37.0879 112.947 37.09 112.7V112.7C37.0725 112.544 37.0891 112.385 37.1386 112.236C37.1881 112.087 37.2693 111.95 37.3766 111.835C37.484 111.72 37.615 111.63 37.7605 111.57C37.9061 111.511 38.0629 111.483 38.22 111.49C38.87 111.49 39.22 111.89 39.22 112.63V112.85H38.54V112.63C38.54 112.37 38.43 112.16 38.15 112.16C37.87 112.16 37.76 112.39 37.76 112.65C37.76 112.91 37.96 113.12 38.19 113.32L38.6 113.67C38.802 113.812 38.9666 114.001 39.0798 114.22C39.1929 114.44 39.2514 114.683 39.25 114.93V114.93C39.25 115.67 38.9 116.18 38.13 116.18C37.9779 116.19 37.8256 116.165 37.6845 116.108C37.5435 116.05 37.4175 115.961 37.3162 115.847C37.2149 115.733 37.1409 115.598 37.1 115.451C37.0591 115.304 37.0522 115.15 37.08 115Z"/>
</g>
<defs>
<clipPath id="clip0_1_17">
<rect width="91.13" height="116.19"/>
</clipPath>
</defs>
</svg>
