<svg width="92" height="107" viewBox="0 0 92 107" fill="none" xmlns="http://www.w3.org/2000/svg">
<path d="M39.67 99H23.81V103H39.67V107H0.0500031V103H11.93V99H0.0500031V95H15.89V103H19.89V95H39.67V99Z" fill="white"/>
<path d="M39.67 91.08H0.0500031V79.2H11.93V83.2H4.01V87.2H15.89V79.2H19.89V87.12H35.67V83.12H23.81V79.12H39.67V91.08Z" fill="white"/>
<path d="M39.67 75.24H23.81V71.24H35.67V67.24H19.85V75.16H0.0500031V63.36H11.93V67.36H4.01V71.36H15.89V63.36H39.67V75.24Z" fill="white"/>
<path d="M39.67 59.4H23.81V55.4H35.67V51.4H19.85V59.4H0.0500031V47.52H11.93V51.52H4.01V55.52H15.89V47.52H39.67V59.4Z" fill="white"/>
<path d="M39.67 43.56H0.0500031V39.56H35.67V35.56H4.01V31.56H39.67V43.56Z" fill="white"/>
<path d="M39.67 27.72H0.0500031V15.84H11.93V19.84H4.01V23.84H15.89V15.84H19.89V23.76H35.67V19.76H23.81V15.76H39.67V27.72Z" fill="white"/>
<path d="M39.67 4H23.81V8H39.67V12H0.0500031V0H15.89V7.92H19.89V0H39.67V4ZM4.01 4V8H11.93V4H4.01Z" fill="white"/>
<path d="M43.6 15.84H59.44V11.84H43.6V0H63.4V7.92H67.4V0H83.2V11.88H71.32V15.88H79.24V19.88H67.36V11.88H63.36V19.8H43.6V15.84ZM59.44 7.92V4H47.56V8L59.44 7.92ZM79.24 7.92V4H71.32V8L79.24 7.92Z" fill="white"/>
<path d="M43.6 23.76H59.44V27.76H47.56V31.76H63.4V23.76H83.2V35.64H71.32V31.64H79.24V27.64H67.36V35.56H43.6V23.76Z" fill="white"/>
<path d="M43.6 39.6H83.2V51.48H43.6V39.6ZM79.24 47.52V43.52H47.56V47.52H79.24ZM87.16 39.6H91.16V43.6H87.16V39.6ZM87.16 47.52H91.16V51.52H87.16V47.52Z" fill="white"/>
<path d="M43.6 63.36H63.4V59.36H43.6V55.36H83.2V59.36H67.36V63.36H83.2V67.36H43.6V63.36Z" fill="white"/>
<path d="M43.6 79.2H79.24V75.2H43.6V71.2H83.2V83.16H47.56V87.16H83.2V91.16H43.6V79.2Z" fill="white"/>
<path d="M43.6 95H83.2V106.88H71.32V102.88H79.24V99H67.36V106.92H63.36V99H47.56V103H59.44V107H43.6V95Z" fill="white"/>
</svg>
