<svg width="100" height="70" viewBox="0 0 100 70" fill="none" xmlns="http://www.w3.org/2000/svg">
<g clip-path="url(#clip0_2_10)">
<path fill-rule="evenodd" clip-rule="evenodd" d="M98.9712 31.7279L99.3103 30.1146L94.7861 29.1559C93.4066 28.8637 90.6009 28.4078 89.2682 28.209C92.8455 28.4662 96.2824 28.3259 99.661 28.4545L99.9883 26.9231L84.3699 23.603L84.0309 25.2163L88.555 26.1749C89.9345 26.4672 92.7402 26.9231 94.0613 27.1218C90.484 26.8646 87.047 27.0049 83.6684 26.8763L83.3411 28.4078L98.9595 31.7279H98.9712ZM90.5307 45.9902L89.5838 47.3463L79.2495 40.0865L80.1964 38.7304L90.5658 45.9902H90.5307ZM88.0641 48.3283C88.6036 48.7065 89.2712 48.855 89.9201 48.741C90.5691 48.627 91.1462 48.2599 91.5244 47.7204C91.9027 47.1809 92.0511 46.5132 91.9371 45.8643C91.8231 45.2153 91.456 44.6383 90.9165 44.26L81.6811 37.7952C81.1416 37.4185 80.4746 37.2715 79.8267 37.3866C79.1789 37.5017 78.6033 37.8695 78.2266 38.4089C77.8498 38.9484 77.7029 39.6154 77.818 40.2633C77.9331 40.9111 78.3008 41.4867 78.8403 41.8634L88.0641 48.3283ZM77.3088 61.1877L78.6766 60.2642L70.6687 48.3984L72.0365 47.4749L71.1129 46.1071L66.9979 48.8777L67.9214 50.2455L69.2892 49.322L77.2855 61.1877H77.3088ZM58.3236 68.6462L59.9369 68.2721L58.8964 63.7597C58.5808 62.3919 57.8092 59.6563 57.4234 58.3587C58.6977 61.7138 60.2759 64.7416 61.5969 67.8864L63.1167 67.5356L59.5277 51.9874L57.9144 52.3615L58.9549 56.874C59.2705 58.2417 60.0421 60.9773 60.4279 62.2749C59.1536 58.9198 57.5754 55.892 56.2544 52.7472L54.7346 53.098L58.3236 68.6462ZM46.3409 53.3201L43.0793 52.7472C42.865 52.7086 42.6452 52.7128 42.4326 52.7596C42.22 52.8064 42.0187 52.8948 41.8404 53.0198C41.6622 53.1448 41.5104 53.3039 41.394 53.4879C41.2776 53.6718 41.1987 53.877 41.162 54.0916L38.9642 66.5303C38.9256 66.7445 38.9298 66.9643 38.9766 67.1769C39.0234 67.3896 39.1118 67.5908 39.2368 67.7691C39.3618 67.9474 39.5209 68.0991 39.7048 68.2155C39.8888 68.332 40.094 68.4108 40.3086 68.4475L43.5703 69.0203L43.8625 67.3954L40.6009 66.8225L41.5595 61.4099L44.0028 61.8424L44.2951 60.2174L41.8518 59.7849L42.8104 54.3722L46.072 54.9451L46.3643 53.3201H46.3409ZM20.9493 60.5214L25.1578 63.1517L27.7882 58.9432L26.3853 58.0664L24.6317 60.8721L23.2289 59.9953L30.8043 47.8256L29.4014 46.9488L20.9376 60.4863L20.9493 60.5214ZM19.6282 39.4786L20.5985 40.823L16.1211 44.0145L15.1508 42.6701L19.6049 39.4319L19.6282 39.4786ZM7.08441 46.4929L8.05471 47.8373L13.8999 43.6287L14.8702 44.9731L9.025 49.1817L9.99531 50.5144L21.0077 42.5064C21.5394 42.1189 21.8955 41.536 21.9974 40.8859C22.0993 40.2359 21.9389 39.5719 21.5513 39.0402C21.1637 38.5085 20.5809 38.1525 19.9308 38.0505C19.2808 37.9486 18.6168 38.109 18.0851 38.4966L7.0727 46.5046L7.08441 46.4929ZM0.070144 30.1262L0.444229 31.646L16.4017 29.647L15.9925 28.022L8.19499 29.191C7.20131 29.343 6.21932 29.4716 4.22025 29.9042C6.17256 29.343 7.10779 29.004 8.05471 28.6649L15.4898 26.0463L15.0339 24.4447L0.0116882 30.173L0.070144 30.1262Z" fill="white"/>
<path d="M87.4561 7.55202L81.7746 11.9944L77.9986 10.7786L73.7666 14.5546L69.3243 12.766L64.0636 16.9394L61.1059 14.613L62.5555 11.5969L64.1922 12.8946L69.0905 9.7732L73.6614 11.4449L77.6713 8.88473L82.1019 9.66799L87.4561 7.55202Z" fill="white"/>
<path d="M66.0276 4.4073L62.5555 11.5969L58.5223 8.4405L51.1807 18.4475H48.4919L41.1504 8.4405L36.7781 11.8775L33.1073 4.4073H66.0276Z" fill="white"/>
<path d="M58.7562 12.766L61.1059 14.613L49.7078 38.1927L38.2628 14.8702L40.9399 12.766L48.492 18.4475H51.1808L58.7562 12.766Z" fill="white"/>
<path d="M36.7781 11.8775L38.2628 14.8702L35.6325 16.9394L30.3718 12.766L25.9294 14.5546L21.6858 10.7786L17.9098 11.9944L12.2282 7.55202L17.5824 9.66799L22.0248 8.88473L26.0346 11.4449L30.5822 9.7732L35.4922 12.8946L36.7781 11.8775Z" fill="white"/>
<path fill-rule="evenodd" clip-rule="evenodd" d="M51.8588 0.163666H47.9191H43.3131L49.848 16.9394L56.4765 0.163666H51.8588Z" fill="#FD1813"/>
<path d="M51.8588 0.163666H47.9191H43.3131L49.848 16.9394L56.4765 0.163666H51.8588Z" stroke="#FD1813" stroke-width="0.28" stroke-miterlimit="3.86"/>
</g>
<defs>
<clipPath id="clip0_2_10">
<rect width="100" height="69.0437" fill="white"/>
</clipPath>
</defs>
</svg>
